<svg xmlns="http://www.w3.org/2000/svg" version="1.1" xmlns:xlink="http://www.w3.org/1999/xlink" xmlns:svgjs="http://svgjs.dev/svgjs" width="1000" height="623" viewBox="0 0 1000 623"><g transform="matrix(1,0,0,1,-0.6060606060606233,0.2522267206477977)"><svg viewBox="0 0 396 247" data-background-color="#528265" preserveAspectRatio="xMidYMid meet" height="623" width="1000" xmlns="http://www.w3.org/2000/svg" xmlns:xlink="http://www.w3.org/1999/xlink"><g id="tight-bounds" transform="matrix(1,0,0,1,0.2400000000000091,-0.09999999999999432)"><svg viewBox="0 0 395.52 247.2" height="247.2" width="395.52"><g><svg></svg></g><g><svg viewBox="0 0 395.52 247.2" height="247.2" width="395.52"><g transform="matrix(1,0,0,1,75.54432,52.93011653219911)"><svg viewBox="0 0 244.43135999999998 141.33976693560177" height="141.33976693560177" width="244.43135999999998"><g><svg viewBox="0 0 244.43135999999998 141.33976693560177" height="141.33976693560177" width="244.43135999999998"><g><svg viewBox="0 0 244.43135999999998 141.33976693560177" height="141.33976693560177" width="244.43135999999998"><g><svg viewBox="0 0 244.43135999999998 141.33976693560177" height="141.33976693560177" width="244.43135999999998"><g><svg viewBox="0 0 244.43135999999998 141.33976693560177" height="141.33976693560177" width="244.43135999999998"><g><svg viewBox="0 0 244.43135999999998 102.11156222485208" height="102.11156222485208" width="244.43135999999998"><g transform="matrix(1,0,0,1,0,0)"><svg width="244.43135999999998" viewBox="4 -35.099998474121094 84.5 35.29999923706055" height="102.11156222485208" data-palette-color="#c9efc7"><path d="M23.35-25.6L23.35-25.6Q23.35-18.4 18.4-15.95L18.4-15.95 25.95 0 22.3 0 15.2-14.9Q13.4-14.6 11.25-14.6L11.25-14.6 7.4-14.6 7.4 0 4 0 4-35 11.25-35Q17.35-35 20.15-33.1L20.15-33.1Q23.35-30.95 23.35-25.6ZM11-32.25L7.4-32.25 7.4-17.35 11-17.35Q15.45-17.35 17.7-19.15 19.95-20.95 19.95-25.4L19.95-25.4Q19.95-31.1 14.75-32L14.75-32Q13.1-32.25 11-32.25L11-32.25ZM57.8 0L54.15 0 34.2-30.5 34.45 0 31.3 0 31.3-35 34.95-35 54.85-4.5 54.65-35 57.8-35 57.8 0ZM85.75-24.95L85.5-31.3Q82.95-32.3 80.15-32.3L80.15-32.3Q74.5-32.3 71.02-28.15 67.55-24 67.55-16 67.55-8 71.2-4.8L71.2-4.8Q73.7-2.55 78.15-2.55L78.15-2.55Q81-2.55 83.87-3.2 86.75-3.85 87.8-4.45L87.8-4.45 88.5-2Q86.3-0.55 80.8 0L80.8 0Q79.2 0.2 77.42 0.2 75.65 0.2 73.25-0.38 70.85-0.95 68.8-2.7L68.8-2.7Q64.15-6.65 64.15-15.85 64.15-25.05 68.52-30.08 72.9-35.1 79.9-35.1L79.9-35.1Q83.8-35.1 86.6-33.55L86.6-33.55Q87.65-33 88.25-32.35L88.25-32.35 88.25-25.1 85.75-24.95Z" opacity="1" transform="matrix(1,0,0,1,0,0)" fill="#c9efc7" class="undefined-text-0" data-fill-palette-color="primary" id="text-0"></path></svg></g></svg></g><g transform="matrix(1,0,0,1,0,117.0120898309514)"><svg viewBox="0 0 244.43135999999998 24.327677104650387" height="24.327677104650387" width="244.43135999999998"><g transform="matrix(1,0,0,1,0,0)"><svg width="244.43135999999998" viewBox="3.5399999618530273 -36.040000915527344 366.92999267578125 36.53000259399414" height="24.327677104650387" data-palette-color="#c9efc7"><path d="M30.15-16.89L30.15-4.22Q29.54-3.34 28.05-2.25 26.56-1.15 24.05-0.33 21.53 0.49 17.8 0.49L17.8 0.49Q13.62 0.49 10.4-1.5 7.18-3.49 5.36-7.14 3.54-10.79 3.54-15.75L3.54-15.75 3.54-20.07Q3.54-24.98 5.21-28.55 6.88-32.13 9.99-34.08 13.09-36.04 17.33-36.04L17.33-36.04Q21.29-36.04 24-34.67 26.71-33.3 28.23-30.92 29.76-28.54 30.13-25.54L30.13-25.54 27.12-25.54Q26.78-27.66 25.71-29.47 24.63-31.27 22.6-32.37 20.56-33.47 17.33-33.47L17.33-33.47Q13.87-33.47 11.46-31.8 9.06-30.13 7.81-27.12 6.57-24.12 6.57-20.12L6.57-20.12 6.57-15.75Q6.57-11.62 7.97-8.54 9.38-5.47 11.9-3.76 14.43-2.05 17.82-2.05L17.82-2.05Q20.53-2.05 22.42-2.58 24.32-3.1 25.49-3.82 26.66-4.54 27.17-5.15L27.17-5.15 27.17-14.36 17.63-14.36 17.63-16.89 30.15-16.89ZM54.95-6.1L54.95-26.42 57.88-26.42 57.88 0 55.05 0 54.95-6.1ZM55.49-10.99L57-11.04Q57-7.71 55.95-5.11 54.9-2.51 52.61-1.01 50.31 0.49 46.6 0.49L46.6 0.49Q42.72 0.49 40.32-1.82 37.91-4.13 37.91-9.52L37.91-9.52 37.91-26.42 40.84-26.42 40.84-9.47Q40.84-6.64 41.67-5.03 42.5-3.42 43.88-2.73 45.26-2.05 46.95-2.05L46.95-2.05Q50.17-2.05 52.04-3.3 53.9-4.54 54.7-6.59 55.49-8.64 55.49-10.99L55.49-10.99ZM75.51-26.42L75.51-24.02 62.25-24.02 62.25-26.42 75.51-26.42ZM67.08-33.2L70.01-33.2 70.01-6.42Q70.01-4.59 70.5-3.65 70.99-2.71 71.78-2.39 72.58-2.08 73.48-2.08L73.48-2.08Q74.14-2.08 74.74-2.16 75.34-2.25 75.83-2.32L75.83-2.32 75.95 0.1Q75.41 0.27 74.56 0.38 73.7 0.49 72.85 0.49L72.85 0.49Q71.16 0.49 69.87-0.13 68.57-0.76 67.83-2.28 67.08-3.81 67.08-6.45L67.08-6.45 67.08-33.2ZM91.59-26.42L91.59-24.02 78.34-24.02 78.34-26.42 91.59-26.42ZM83.17-33.2L86.1-33.2 86.1-6.42Q86.1-4.59 86.59-3.65 87.08-2.71 87.87-2.39 88.66-2.08 89.57-2.08L89.57-2.08Q90.23-2.08 90.83-2.16 91.42-2.25 91.91-2.32L91.91-2.32 92.03 0.1Q91.5 0.27 90.64 0.38 89.79 0.49 88.93 0.49L88.93 0.49Q87.25 0.49 85.95-0.13 84.66-0.76 83.92-2.28 83.17-3.81 83.17-6.45L83.17-6.45 83.17-33.2ZM107.88 0.49L107.88 0.49Q104.43 0.49 101.76-1.18 99.09-2.86 97.56-5.77 96.03-8.69 96.03-12.48L96.03-12.48 96.03-13.53Q96.03-17.6 97.61-20.61 99.18-23.61 101.76-25.26 104.34-26.9 107.34-26.9L107.34-26.9Q110.71-26.9 113.05-25.35 115.4-23.8 116.6-21.07 117.81-18.33 117.81-14.82L117.81-14.82 117.81-13.04 97.82-13.04 97.82-15.5 114.88-15.5 114.88-15.84Q114.83-18.07 113.99-20.02 113.15-21.97 111.49-23.21 109.83-24.44 107.34-24.44L107.34-24.44Q104.87-24.44 102.97-23.05 101.06-21.66 100.01-19.2 98.96-16.75 98.96-13.53L98.96-13.53 98.96-12.48Q98.96-9.55 100.1-7.18 101.24-4.81 103.29-3.39 105.34-1.98 108-1.98L108-1.98Q110.34-1.98 112.15-2.84 113.95-3.71 115.4-5.59L115.4-5.59 117.25-4.2Q115.96-2.27 113.7-0.89 111.44 0.49 107.88 0.49ZM126.43-22.05L126.43 0 123.5 0 123.5-26.42 126.35-26.42 126.43-22.05ZM135.78-26.61L135.71-23.95Q135.22-24.02 134.75-24.07 134.29-24.12 133.75-24.12L133.75-24.12Q131.24-24.12 129.53-22.9 127.82-21.68 126.93-19.63 126.04-17.58 125.96-15.04L125.96-15.04 124.87-14.65Q124.87-18.09 125.83-20.86 126.79-23.63 128.78-25.27 130.77-26.9 133.85-26.9L133.85-26.9Q134.41-26.9 134.96-26.82 135.51-26.73 135.78-26.61L135.78-26.61ZM165.31-14.48L155.16-14.48 155.16-17.04 165.31-17.04Q168.49-17.04 170.47-18.08 172.44-19.12 173.36-20.9 174.27-22.68 174.27-24.9L174.27-24.9Q174.27-27.08 173.36-28.91 172.44-30.74 170.47-31.86 168.49-32.98 165.31-32.98L165.31-32.98 156.21-32.98 156.21 0 153.21 0 153.21-35.55 165.31-35.55Q169.22-35.55 171.88-34.2 174.54-32.86 175.91-30.48 177.28-28.1 177.28-24.95L177.28-24.95Q177.28-21.68 175.92-19.32 174.57-16.97 171.89-15.72 169.22-14.48 165.31-14.48L165.31-14.48ZM186.21-22.05L186.21 0 183.28 0 183.28-26.42 186.14-26.42 186.21-22.05ZM195.56-26.61L195.49-23.95Q195-24.02 194.54-24.07 194.07-24.12 193.53-24.12L193.53-24.12Q191.02-24.12 189.31-22.9 187.6-21.68 186.71-19.63 185.82-17.58 185.75-15.04L185.75-15.04 184.65-14.65Q184.65-18.09 185.61-20.86 186.58-23.63 188.57-25.27 190.56-26.9 193.63-26.9L193.63-26.9Q194.19-26.9 194.74-26.82 195.29-26.73 195.56-26.61L195.56-26.61ZM197.85-12.79L197.85-13.6Q197.85-17.46 199.32-20.46 200.78-23.46 203.42-25.18 206.06-26.9 209.62-26.9L209.62-26.9Q213.21-26.9 215.87-25.18 218.53-23.46 219.98-20.46 221.44-17.46 221.44-13.6L221.44-13.6 221.44-12.79Q221.44-8.96 219.98-5.96 218.53-2.95 215.88-1.23 213.23 0.49 209.67 0.49L209.67 0.49Q206.08 0.49 203.43-1.23 200.78-2.95 199.32-5.96 197.85-8.96 197.85-12.79L197.85-12.79ZM200.78-13.6L200.78-12.79Q200.78-9.91 201.81-7.45 202.83-4.98 204.81-3.48 206.79-1.98 209.67-1.98L209.67-1.98Q212.53-1.98 214.49-3.48 216.46-4.98 217.48-7.45 218.51-9.91 218.51-12.79L218.51-12.79 218.51-13.6Q218.51-16.46 217.48-18.92 216.46-21.39 214.48-22.91 212.5-24.44 209.62-24.44L209.62-24.44Q206.76-24.44 204.79-22.91 202.81-21.39 201.8-18.92 200.78-16.46 200.78-13.6L200.78-13.6ZM237.5-26.42L237.5-24.02 224.24-24.02 224.24-26.42 237.5-26.42ZM229.08-33.2L232.01-33.2 232.01-6.42Q232.01-4.59 232.49-3.65 232.98-2.71 233.78-2.39 234.57-2.08 235.47-2.08L235.47-2.08Q236.13-2.08 236.73-2.16 237.33-2.25 237.82-2.32L237.82-2.32 237.94 0.1Q237.4 0.27 236.55 0.38 235.69 0.49 234.84 0.49L234.84 0.49Q233.15 0.49 231.86-0.13 230.57-0.76 229.82-2.28 229.08-3.81 229.08-6.45L229.08-6.45 229.08-33.2ZM253.78 0.49L253.78 0.49Q250.34 0.49 247.67-1.18 244.99-2.86 243.47-5.77 241.94-8.69 241.94-12.48L241.94-12.48 241.94-13.53Q241.94-17.6 243.51-20.61 245.09-23.61 247.67-25.26 250.24-26.9 253.24-26.9L253.24-26.9Q256.61-26.9 258.96-25.35 261.3-23.8 262.51-21.07 263.72-18.33 263.72-14.82L263.72-14.82 263.72-13.04 243.72-13.04 243.72-15.5 260.79-15.5 260.79-15.84Q260.74-18.07 259.9-20.02 259.05-21.97 257.39-23.21 255.73-24.44 253.24-24.44L253.24-24.44Q250.78-24.44 248.87-23.05 246.97-21.66 245.92-19.2 244.87-16.75 244.87-13.53L244.87-13.53 244.87-12.48Q244.87-9.55 246.01-7.18 247.14-4.81 249.19-3.39 251.24-1.98 253.9-1.98L253.9-1.98Q256.25-1.98 258.05-2.84 259.86-3.71 261.3-5.59L261.3-5.59 263.16-4.2Q261.86-2.27 259.6-0.89 257.35 0.49 253.78 0.49ZM279.17-1.98L279.17-1.98Q281.02-1.98 282.65-2.7 284.27-3.42 285.33-4.8 286.4-6.18 286.54-8.18L286.54-8.18 289.35-8.18Q289.23-5.66 287.81-3.7 286.4-1.73 284.14-0.62 281.88 0.49 279.17 0.49L279.17 0.49Q275.48 0.49 272.97-1.26 270.45-3 269.18-5.99 267.91-8.98 267.91-12.7L267.91-12.7 267.91-13.72Q267.91-17.46 269.2-20.43 270.48-23.41 272.98-25.16 275.48-26.9 279.14-26.9L279.14-26.9Q281.98-26.9 284.24-25.76 286.49-24.61 287.86-22.51 289.23-20.41 289.35-17.53L289.35-17.53 286.54-17.53Q286.42-19.65 285.42-21.2 284.42-22.75 282.78-23.6 281.15-24.44 279.14-24.44L279.14-24.44Q276.17-24.44 274.32-22.92 272.48-21.41 271.65-18.97 270.82-16.53 270.82-13.72L270.82-13.72 270.82-12.7Q270.82-9.89 271.65-7.43 272.48-4.98 274.32-3.48 276.17-1.98 279.17-1.98ZM305.22-26.42L305.22-24.02 291.96-24.02 291.96-26.42 305.22-26.42ZM296.79-33.2L299.72-33.2 299.72-6.42Q299.72-4.59 300.21-3.65 300.7-2.71 301.49-2.39 302.29-2.08 303.19-2.08L303.19-2.08Q303.85-2.08 304.45-2.16 305.05-2.25 305.53-2.32L305.53-2.32 305.66 0.1Q305.12 0.27 304.26 0.38 303.41 0.49 302.56 0.49L302.56 0.49Q300.87 0.49 299.58-0.13 298.28-0.76 297.54-2.28 296.79-3.81 296.79-6.45L296.79-6.45 296.79-33.2ZM314.54-26.42L314.54 0 311.63 0 311.63-26.42 314.54-26.42ZM311.12-34.06L311.12-34.06Q311.12-34.89 311.65-35.46 312.17-36.04 313.1-36.04L313.1-36.04Q314.05-36.04 314.59-35.46 315.13-34.89 315.13-34.06L315.13-34.06Q315.13-33.25 314.59-32.69 314.05-32.13 313.1-32.13L313.1-32.13Q312.17-32.13 311.65-32.69 311.12-33.25 311.12-34.06ZM320.91-12.79L320.91-13.6Q320.91-17.46 322.37-20.46 323.84-23.46 326.48-25.18 329.11-26.9 332.68-26.9L332.68-26.9Q336.27-26.9 338.93-25.18 341.59-23.46 343.04-20.46 344.49-17.46 344.49-13.6L344.49-13.6 344.49-12.79Q344.49-8.96 343.04-5.96 341.59-2.95 338.94-1.23 336.29 0.49 332.73 0.49L332.73 0.49Q329.14 0.49 326.49-1.23 323.84-2.95 322.37-5.96 320.91-8.96 320.91-12.79L320.91-12.79ZM323.84-13.6L323.84-12.79Q323.84-9.91 324.86-7.45 325.89-4.98 327.87-3.48 329.85-1.98 332.73-1.98L332.73-1.98Q335.58-1.98 337.55-3.48 339.51-4.98 340.54-7.45 341.56-9.91 341.56-12.79L341.56-12.79 341.56-13.6Q341.56-16.46 340.54-18.92 339.51-21.39 337.54-22.91 335.56-24.44 332.68-24.44L332.68-24.44Q329.82-24.44 327.84-22.91 325.87-21.39 324.85-18.92 323.84-16.46 323.84-13.6L323.84-13.6ZM353.45-20.78L353.45 0 350.52 0 350.52-26.42 353.33-26.42 353.45-20.78ZM352.82-14.87L351.5-15.6Q351.69-18.7 353.04-21.26 354.38-23.83 356.69-25.37 358.99-26.9 362.02-26.9L362.02-26.9Q364.68-26.9 366.56-25.93 368.44-24.95 369.45-22.81 370.47-20.68 370.47-17.19L370.47-17.19 370.47 0 367.54 0 367.54-17.21Q367.54-19.95 366.78-21.51 366.02-23.07 364.63-23.73 363.24-24.39 361.34-24.39L361.34-24.39Q359.24-24.39 357.66-23.47 356.09-22.56 355.03-21.11 353.96-19.65 353.4-17.99 352.84-16.33 352.82-14.87L352.82-14.87Z" opacity="1" transform="matrix(1,0,0,1,0,0)" fill="#c9efc7" class="undefined-text-1" data-fill-palette-color="secondary" id="text-1"></path></svg></g></svg></g></svg></g></svg></g></svg></g></svg></g></svg></g><g><path d="M245.816 0c68.262 0 123.6 55.338 123.6 123.6 0 68.262-55.338 123.6-123.6 123.6-38.63 0-73.122-17.722-95.787-45.48h3.703c22.15 26.083 55.184 42.634 92.084 42.634 66.691 0 120.754-54.063 120.754-120.754 0-66.691-54.063-120.754-120.754-120.754-36.9 0-69.934 16.551-92.084 42.634l-3.703 0c22.665-27.758 57.156-45.48 95.787-45.48z" fill="#c9efc7" stroke="transparent" data-fill-palette-color="tertiary"></path></g></svg></g><defs></defs></svg><rect width="395.52" height="247.2" fill="none" stroke="none" visibility="hidden"></rect></g></svg></g></svg>